<svg xmlns="http://www.w3.org/2000/svg" viewBox="0 0 100 100" width="100" height="100">
  <!-- Background circle -->
  <circle cx="50" cy="50" r="45" fill="#3B82F6" stroke="#1E40AF" stroke-width="2"/>
  
  <!-- Club building/house shape -->
  <g transform="translate(50,50)">
    <!-- Main building -->
    <rect x="-18" y="-5" width="36" height="25" fill="#FFFFFF" rx="2"/>
    
    <!-- Roof -->
    <polygon points="-22,-5 0,-20 22,-5" fill="#EF4444" stroke="#DC2626" stroke-width="1"/>
    
    <!-- Door -->
    <rect x="-4" y="8" width="8" height="12" fill="#8B5CF6" rx="1"/>
    <circle cx="2" cy="14" r="0.8" fill="#FFFFFF"/>
    
    <!-- Windows -->
    <rect x="-14" y="-1" width="6" height="6" fill="#60A5FA" rx="1"/>
    <rect x="8" y="-1" width="6" height="6" fill="#60A5FA" rx="1"/>
    
    <!-- Window frames -->
    <line x1="-11" y1="-1" x2="-11" y2="5" stroke="#FFFFFF" stroke-width="0.5"/>
    <line x1="-14" y1="2" x2="-8" y2="2" stroke="#FFFFFF" stroke-width="0.5"/>
    <line x1="11" y1="-1" x2="11" y2="5" stroke="#FFFFFF" stroke-width="0.5"/>
    <line x1="8" y1="2" x2="14" y2="2" stroke="#FFFFFF" stroke-width="0.5"/>
    
    <!-- People icons (representing club members) -->
    <g transform="translate(-8,-25)">
      <circle cx="0" cy="0" r="2.5" fill="#FCD34D"/>
      <ellipse cx="0" cy="6" rx="3" ry="4" fill="#10B981"/>
    </g>
    
    <g transform="translate(0,-25)">
      <circle cx="0" cy="0" r="2.5" fill="#FCD34D"/>
      <ellipse cx="0" cy="6" rx="3" ry="4" fill="#F59E0B"/>
    </g>
    
    <g transform="translate(8,-25)">
      <circle cx="0" cy="0" r="2.5" fill="#FCD34D"/>
      <ellipse cx="0" cy="6" rx="3" ry="4" fill="#EF4444"/>
    </g>
  </g>
  
  <!-- Decorative elements -->
  <circle cx="20" cy="25" r="2" fill="#FBBF24" opacity="0.7"/>
  <circle cx="80" cy="30" r="1.5" fill="#34D399" opacity="0.7"/>
  <circle cx="25" cy="75" r="1.8" fill="#F472B6" opacity="0.7"/>
  <circle cx="75" cy="70" r="2.2" fill="#A78BFA" opacity="0.7"/>
</svg>